<?xml version="1.0" standalone="no"?>
<svg xmlns:xlink="http://www.w3.org/1999/xlink" id="wave" style="transform:rotate(180deg); transition: 0.3s" viewBox="0 0 1440 100" version="1.1" xmlns="http://www.w3.org/2000/svg"><defs><linearGradient id="sw-gradient-0" x1="0" x2="0" y1="1" y2="0"><stop stop-color="rgba(255, 249, 234, 1)" offset="0%"/><stop stop-color="rgba(255, 249, 234, 1)" offset="100%"/></linearGradient></defs><path style="transform:translate(0, 0px); opacity:1" fill="url(#sw-gradient-0)" d="M0,50L60,55C120,60,240,70,360,66.7C480,63,600,47,720,43.3C840,40,960,50,1080,58.3C1200,67,1320,73,1440,78.3C1560,83,1680,87,1800,78.3C1920,70,2040,50,2160,36.7C2280,23,2400,17,2520,26.7C2640,37,2760,63,2880,61.7C3000,60,3120,30,3240,28.3C3360,27,3480,53,3600,58.3C3720,63,3840,47,3960,33.3C4080,20,4200,10,4320,5C4440,0,4560,0,4680,1.7C4800,3,4920,7,5040,18.3C5160,30,5280,50,5400,63.3C5520,77,5640,83,5760,76.7C5880,70,6000,50,6120,43.3C6240,37,6360,43,6480,50C6600,57,6720,63,6840,56.7C6960,50,7080,30,7200,20C7320,10,7440,10,7560,18.3C7680,27,7800,43,7920,48.3C8040,53,8160,47,8280,43.3C8400,40,8520,40,8580,40L8640,40L8640,100L8580,100C8520,100,8400,100,8280,100C8160,100,8040,100,7920,100C7800,100,7680,100,7560,100C7440,100,7320,100,7200,100C7080,100,6960,100,6840,100C6720,100,6600,100,6480,100C6360,100,6240,100,6120,100C6000,100,5880,100,5760,100C5640,100,5520,100,5400,100C5280,100,5160,100,5040,100C4920,100,4800,100,4680,100C4560,100,4440,100,4320,100C4200,100,4080,100,3960,100C3840,100,3720,100,3600,100C3480,100,3360,100,3240,100C3120,100,3000,100,2880,100C2760,100,2640,100,2520,100C2400,100,2280,100,2160,100C2040,100,1920,100,1800,100C1680,100,1560,100,1440,100C1320,100,1200,100,1080,100C960,100,840,100,720,100C600,100,480,100,360,100C240,100,120,100,60,100L0,100Z"/></svg>